<?xml version="1.0" encoding="UTF-8"?>
<svg version="1.1" xmlns="http://www.w3.org/2000/svg" width="606" height="606">
<path d="M0 0 C199.98 0 399.96 0 606 0 C606 199.98 606 399.96 606 606 C406.02 606 206.04 606 0 606 C0 406.02 0 206.04 0 0 Z " fill="#212637" transform="translate(0,0)"/>
<path d="M0 0 C0.76892578 -0.01224609 1.53785156 -0.02449219 2.33007812 -0.03710938 C15.75864565 -0.07110575 27.32039751 5.53403607 36.9375 14.78125 C48.65867932 27.3164001 52.72133706 41.55229016 52.46484375 58.2734375 C51.91832239 72.42861266 45.15763282 84.21987278 35.09375 93.859375 C23.72816079 102.96406743 9.65737471 107.59958207 -4.8125 106.1875 C-19.02204778 103.95225056 -29.61635391 98.11679619 -40.66992188 89.17260742 C-48.42318158 82.64881489 -48.42318158 82.64881489 -57.828125 80.3203125 C-60.51066004 81.49260143 -61.96033236 83.16023265 -63.9375 85.3125 C-71.43730796 93.03289055 -79.75707168 98.36419647 -89.8125 102.1875 C-90.65554688 102.50847656 -91.49859375 102.82945312 -92.3671875 103.16015625 C-99.31369844 105.32464879 -106.2202985 105.4952911 -113.4375 105.5625 C-114.40333008 105.57643799 -115.36916016 105.59037598 -116.36425781 105.60473633 C-129.84666248 105.51618761 -140.89678234 100.54591375 -150.73828125 91.42578125 C-161.35811312 79.96596268 -163.32775385 66.07777877 -163.0859375 51.09375 C-162.63990353 39.68234628 -158.58656253 30.31387436 -151.8125 21.1875 C-151.33941406 20.53136719 -150.86632812 19.87523437 -150.37890625 19.19921875 C-143.28229238 10.13244012 -131.2329323 2.86001893 -119.8125 1.1875 C-104.39835701 0.13692713 -90.45408328 2.73889394 -77.8125 12.1875 C-65.46412903 23.04794789 -65.46412903 23.04794789 -61.8125 29.1875 C-62.8125 32.1875 -62.8125 32.1875 -65.875 33.875 C-66.844375 34.308125 -67.81375 34.74125 -68.8125 35.1875 C-69.56273437 34.33027344 -70.31296875 33.47304688 -71.0859375 32.58984375 C-80.94440443 21.4992711 -91.07674386 11.76558644 -106.640625 10.80859375 C-108.40585249 10.75352231 -110.17160174 10.71327362 -111.9375 10.6875 C-113.19022705 10.65958374 -113.19022705 10.65958374 -114.46826172 10.63110352 C-124.63350992 10.73429892 -133.22729755 15.63378445 -140.8125 22.1875 C-151.49363934 34.15452407 -154.42416476 47.68662737 -153.8125 63.1875 C-152.86968229 72.38670712 -148.31640064 80.68359936 -141.8125 87.1875 C-130.83107189 95.3189386 -119.28372334 97.36639762 -105.8125 96.1875 C-88.98056519 93.65611137 -77.60188785 85.96863487 -65.8125 74.1875 C-65.12027344 73.51847656 -64.42804688 72.84945312 -63.71484375 72.16015625 C-54.9641495 63.0506636 -50.43593258 50.4888915 -45.75 39 C-39.14476493 22.84083109 -33.01030656 10.18827983 -16.64453125 2.31640625 C-11.0922409 0.10314844 -5.89990646 0.00487193 0 0 Z " fill="#212737" transform="translate(361.8125,382.8125)"/>
<path d="M0 0 C46.48222477 0 46.48222477 0 59.5234375 11.40234375 C68.48327219 21.0969797 70.78205852 32.90423216 70.34375 45.67578125 C69.67981837 56.34848222 66.35172221 66.10963676 59 74 C42.45245353 88.45173245 20.6827103 85 0 85 C0 56.95 0 28.9 0 0 Z " fill="#E3E8F9" transform="translate(30,254)"/>
<path d="M0 0 C0.76892578 -0.01224609 1.53785156 -0.02449219 2.33007812 -0.03710938 C15.75864565 -0.07110575 27.32039751 5.53403607 36.9375 14.78125 C48.65867932 27.3164001 52.72133706 41.55229016 52.46484375 58.2734375 C51.91832239 72.42861266 45.15763282 84.21987278 35.09375 93.859375 C23.72816079 102.96406743 9.65737471 107.59958207 -4.8125 106.1875 C-19.02204778 103.95225056 -29.61635391 98.11679619 -40.66992188 89.17260742 C-48.42318158 82.64881489 -48.42318158 82.64881489 -57.828125 80.3203125 C-60.51066004 81.49260143 -61.96033236 83.16023265 -63.9375 85.3125 C-71.43730796 93.03289055 -79.75707168 98.36419647 -89.8125 102.1875 C-90.65554688 102.50847656 -91.49859375 102.82945312 -92.3671875 103.16015625 C-99.31369844 105.32464879 -106.2202985 105.4952911 -113.4375 105.5625 C-114.40333008 105.57643799 -115.36916016 105.59037598 -116.36425781 105.60473633 C-129.84666248 105.51618761 -140.89678234 100.54591375 -150.73828125 91.42578125 C-161.35811312 79.96596268 -163.32775385 66.07777877 -163.0859375 51.09375 C-162.63990353 39.68234628 -158.58656253 30.31387436 -151.8125 21.1875 C-151.33941406 20.53136719 -150.86632812 19.87523437 -150.37890625 19.19921875 C-143.28229238 10.13244012 -131.2329323 2.86001893 -119.8125 1.1875 C-104.39835701 0.13692713 -90.45408328 2.73889394 -77.8125 12.1875 C-65.46412903 23.04794789 -65.46412903 23.04794789 -61.8125 29.1875 C-62.8125 32.1875 -62.8125 32.1875 -65.875 33.875 C-66.844375 34.308125 -67.81375 34.74125 -68.8125 35.1875 C-69.56273437 34.33027344 -70.31296875 33.47304688 -71.0859375 32.58984375 C-80.94440443 21.4992711 -91.07674386 11.76558644 -106.640625 10.80859375 C-108.40585249 10.75352231 -110.17160174 10.71327362 -111.9375 10.6875 C-113.19022705 10.65958374 -113.19022705 10.65958374 -114.46826172 10.63110352 C-124.63350992 10.73429892 -133.22729755 15.63378445 -140.8125 22.1875 C-151.49363934 34.15452407 -154.42416476 47.68662737 -153.8125 63.1875 C-152.86968229 72.38670712 -148.31640064 80.68359936 -141.8125 87.1875 C-130.83107189 95.3189386 -119.28372334 97.36639762 -105.8125 96.1875 C-88.98056519 93.65611137 -77.60188785 85.96863487 -65.8125 74.1875 C-65.12027344 73.51847656 -64.42804688 72.84945312 -63.71484375 72.16015625 C-54.9641495 63.0506636 -50.43593258 50.4888915 -45.75 39 C-39.14476493 22.84083109 -33.01030656 10.18827983 -16.64453125 2.31640625 C-11.0922409 0.10314844 -5.89990646 0.00487193 0 0 Z M-27.3125 20.9375 C-31.99735326 27.2726993 -34.80400829 34.6389952 -37.83496094 41.86083984 C-39.33920408 45.44111884 -40.88547178 49.00272696 -42.4375 52.5625 C-42.86107788 53.5381189 -42.86107788 53.5381189 -43.29321289 54.53344727 C-45.91724597 60.5296097 -48.80614724 66.37301554 -51.8125 72.1875 C-50.91724609 72.61095703 -50.91724609 72.61095703 -50.00390625 73.04296875 C-42.67758276 76.7551178 -36.45306033 81.34409203 -30.09204102 86.51635742 C-25.27822351 90.35070822 -20.55391018 92.9823287 -14.8125 95.1875 C-13.801875 95.59097656 -12.79125 95.99445313 -11.75 96.41015625 C0.64822052 99.69106833 13.58216764 97.10889669 24.55078125 90.8359375 C32.753661 85.13374148 40.1024632 76.84681884 42.76171875 67.078125 C44.83263695 53.01868036 44.2737364 39.54178073 36.390625 27.42578125 C29.05827082 17.61509135 20.13376727 11.21442583 8.1875 8.1875 C-6.25695542 6.53894802 -17.73099017 9.90686791 -27.3125 20.9375 Z " fill="#63D86C" transform="translate(361.8125,382.8125)"/>
<path d="M0 0 C6.97193922 4.0243433 12.43847607 9.4592445 15.0234375 17.16796875 C17.80637714 27.82643826 17.49690657 41.52885064 12.0234375 51.16796875 C7.34553121 58.14337838 1.86464369 61.55423335 -5.9765625 64.16796875 C-16.30294611 64.88296239 -25.67017783 65.03509142 -34.21875 58.4375 C-41.38821995 51.85892043 -44.57845239 44.18530513 -45.21484375 34.56640625 C-45.50599501 24.03795899 -44.5577732 15.24994205 -37.7265625 6.73046875 C-28.60786595 -2.85988452 -12.12384669 -4.94708687 0 0 Z " fill="#E4E9FA" transform="translate(148.9765625,275.83203125)"/>
<path d="M0 0 C42.30930233 0 42.30930233 0 52 9 C57.385295 15.93037964 57.72016793 23.53541752 57 32 C55.04074278 40.82289715 50.35640593 45.54193717 42.9609375 50.31640625 C34.41035357 54.65212637 24.26700748 53.2471202 15 53 C15 63.56 15 74.12 15 85 C10.05 85 5.1 85 0 85 C0 56.95 0 28.9 0 0 Z " fill="#63D86C" transform="translate(402,254)"/>
<path d="M0 0 C4.49922104 3.52197088 6.399815 6.95207049 7.81640625 12.421875 C8.08485905 16.19205903 8.04918745 19.94851089 8.01171875 23.7265625 C8.00888885 24.80567902 8.00605896 25.88479553 8.00314331 26.99661255 C7.99198285 30.43014799 7.96688555 33.86341891 7.94140625 37.296875 C7.93137112 39.63020456 7.9222462 41.96353822 7.9140625 44.296875 C7.892057 50.00530966 7.85755533 55.71354754 7.81640625 61.421875 C4.18640625 61.421875 0.55640625 61.421875 -3.18359375 61.421875 C-4.17359375 58.781875 -5.16359375 56.141875 -6.18359375 53.421875 C-6.84359375 54.164375 -7.50359375 54.906875 -8.18359375 55.671875 C-13.82462975 61.14149831 -18.7897337 62.6943184 -26.68359375 62.921875 C-33.83596236 62.69436427 -38.61881437 61.91641243 -43.76953125 56.8671875 C-47.83960298 51.62781339 -47.85330471 46.08435994 -47.60546875 39.640625 C-46.90249135 34.27716782 -44.66913657 31.82711821 -40.87109375 28.234375 C-34.76441502 24.11591725 -28.62231222 22.27710907 -21.3203125 22.32421875 C-19.9909668 22.32905273 -19.9909668 22.32905273 -18.63476562 22.33398438 C-17.72275391 22.34236328 -16.81074219 22.35074219 -15.87109375 22.359375 C-14.93974609 22.36388672 -14.00839844 22.36839844 -13.04882812 22.37304688 C-10.76035002 22.38478266 -8.47200567 22.40120137 -6.18359375 22.421875 C-6.29864258 21.69323242 -6.41369141 20.96458984 -6.53222656 20.21386719 C-6.94384766 17.60693359 -6.94384766 17.60693359 -7.35546875 15 C-8.39043059 11.77794899 -9.45888416 10.42737191 -12.18359375 8.421875 C-19.10849108 7.24454975 -25.90682405 8.12794622 -32.37890625 10.765625 C-34.18359375 11.421875 -34.18359375 11.421875 -37.18359375 11.421875 C-40.21824655 5.10979718 -40.21824655 5.10979718 -40.078125 2.328125 C-39.18359375 0.421875 -39.18359375 0.421875 -37.12890625 -0.84375 C-25.71130969 -4.82883911 -10.74779552 -6.65428732 0 0 Z " fill="#63D86C" transform="translate(507.18359375,277.578125)"/>
<path d="M0 0 C4.41062356 3.34699973 7.67066368 6.83948435 8.765625 12.33984375 C8.8505183 14.01944061 8.8833972 15.70205352 8.87915039 17.38378906 C8.87907486 18.38452454 8.87899933 19.38526001 8.87892151 20.4163208 C8.87376022 21.48936462 8.86859894 22.56240845 8.86328125 23.66796875 C8.8618663 24.77211121 8.86045135 25.87625366 8.85899353 27.01385498 C8.85339758 30.53921217 8.84084579 34.06450577 8.828125 37.58984375 C8.82310948 39.98046783 8.81854666 42.37109291 8.81445312 44.76171875 C8.80342947 50.62111824 8.78616757 56.48047021 8.765625 62.33984375 C5.465625 62.33984375 2.165625 62.33984375 -1.234375 62.33984375 C-2.49102478 59.43384114 -3.234375 57.54379791 -3.234375 54.33984375 C-3.81445312 54.82195312 -4.39453125 55.3040625 -4.9921875 55.80078125 C-5.77335937 56.43242187 -6.55453125 57.0640625 -7.359375 57.71484375 C-8.12507813 58.34132813 -8.89078125 58.9678125 -9.6796875 59.61328125 C-16.81316358 64.43437671 -24.93223047 64.07398535 -33.234375 63.33984375 C-38.19959013 61.83892087 -41.41067285 58.62768776 -44.234375 54.33984375 C-46.89855104 48.61715515 -47.47995411 42.33763059 -45.58203125 36.24609375 C-42.7248684 30.65439306 -38.4409126 27.59326268 -32.74609375 25.3671875 C-23.69163304 22.67464386 -14.57606727 23.05959298 -5.234375 23.33984375 C-5.34269555 18.81992263 -5.71632266 15.28001281 -7.921875 11.27734375 C-14.11181822 7.65681092 -21.52874346 8.52765054 -28.37109375 10.02734375 C-30.69987204 10.71833645 -32.9697183 11.46320245 -35.234375 12.33984375 C-35.93402943 11.07566129 -36.61872263 9.80318973 -37.296875 8.52734375 C-37.67972656 7.81964844 -38.06257812 7.11195313 -38.45703125 6.3828125 C-39.234375 4.33984375 -39.234375 4.33984375 -38.234375 1.33984375 C-27.73746927 -3.97077353 -10.62014478 -5.8745289 0 0 Z " fill="#E3E8F9" transform="translate(282.234375,276.66015625)"/>
<path d="M0 0 C7.22113854 4.82401832 9.65757652 9.13559917 12.89453125 17.265625 C12.89453125 22.545625 12.89453125 27.825625 12.89453125 33.265625 C-1.29546875 33.265625 -15.48546875 33.265625 -30.10546875 33.265625 C-27.65174622 42.63912176 -27.65174622 42.63912176 -22.10546875 49.265625 C-14.95865819 53.10049896 -5.56999148 51.87199343 1.95703125 49.765625 C2.83488281 49.4871875 3.71273437 49.20875 4.6171875 48.921875 C6.89453125 48.265625 6.89453125 48.265625 9.89453125 48.265625 C9.89453125 51.895625 9.89453125 55.525625 9.89453125 59.265625 C-1.3640079 63.65454704 -15.08253173 65.99589556 -26.79296875 61.640625 C-35.16195595 57.53535589 -40.15850758 51.95131594 -43.18359375 43.1171875 C-45.70846135 32.56837626 -45.52960937 20.50843925 -40.6484375 10.71875 C-32.01480969 -3.00762535 -14.57379441 -7.47982931 0 0 Z " fill="#E4E9FA" transform="translate(382.10546875,276.734375)"/>
<path d="M0 0 C5.28 0 10.56 0 16 0 C16.68359375 2.37630208 17.3671875 4.75260417 18.05078125 7.12890625 C18.99369747 10.11953005 18.99369747 10.11953005 20.453125 13.3828125 C21.99315955 16.9840044 23.23718853 20.58563129 24.4375 24.3125 C26.1638589 29.61310501 28.03775729 34.81090767 30.203125 39.94921875 C30.98015564 41.94892996 31.52807475 43.90937114 32 46 C36.03298368 37.15845886 39.06461852 28.04134932 42.05664062 18.80664062 C44.13692177 12.42462043 46.44306744 6.20725275 49 0 C53.95 0 58.9 0 64 0 C61.55304153 8.70779703 58.39103325 17.07700309 55.125 25.5 C53.95720871 28.51909746 52.79082312 31.53873579 51.625 34.55859375 C51.32667267 35.33025375 51.02834534 36.10191376 50.72097778 36.8969574 C48.89781242 41.62598586 47.11378494 46.36762183 45.36404419 51.1242981 C44.23184369 54.20146974 43.08826784 57.27436421 41.9442749 60.34716797 C41.40469249 61.80620718 40.87056931 63.26727877 40.34234619 64.73046875 C36.55155247 75.21975524 32.34103645 85.85111909 21.8203125 91.203125 C15.72114311 92.92643602 9.27093024 92.34624768 3 92 C3 88.37 3 84.74 3 81 C4.69125 80.9175 6.3825 80.835 8.125 80.75 C13.17931207 80.24456879 16.29241725 79.70758275 20 76 C24.05541429 70.03615981 24.05541429 70.03615981 24.64428711 63.12475586 C23.86739863 60.69919043 22.95505798 58.36142132 22 56 C21.59773193 54.96190186 21.19546387 53.92380371 20.78100586 52.85424805 C19.35681686 49.20565078 17.90085525 45.57049143 16.4375 41.9375 C15.90780083 40.61624171 15.37817941 39.29495225 14.84863281 37.97363281 C10.97852598 28.33723809 7.01237577 18.7431617 2.94702148 9.18725586 C2.55716064 8.26436768 2.1672998 7.34147949 1.765625 6.390625 C1.25177246 5.1845459 1.25177246 5.1845459 0.72753906 3.95410156 C0 2 0 2 0 0 Z " fill="#64DA6C" transform="translate(518,275)"/>
<path d="M0 0 C25.7429387 0 25.7429387 0 33.875 7.0625 C40.90300949 14.95447283 41.89053385 24.67321669 41.4453125 34.828125 C40.83478061 42.29776095 38.30591478 49.25391906 32.8125 54.5 C30.97265625 55.8203125 30.97265625 55.8203125 29 57 C28.33871094 57.40992188 27.67742187 57.81984375 26.99609375 58.2421875 C17.99940886 62.77964596 10.82900325 61 0 61 C0 40.87 0 20.74 0 0 Z " fill="#252A3B" transform="translate(44,266)"/>
<path d="M0 0 C4.63270683 4.41418292 6.72183736 10.12077523 7.17510986 16.44206238 C7.23047709 19.2850653 7.22490211 22.12145533 7.1953125 24.96484375 C7.1924826 25.99815323 7.18965271 27.03146271 7.18673706 28.09608459 C7.17559647 31.37667722 7.15050304 34.65699073 7.125 37.9375 C7.1149623 40.16991792 7.10583783 42.40234014 7.09765625 44.63476562 C7.07567716 50.0899503 7.04118949 55.54492792 7 61 C2.05 61 -2.9 61 -8 61 C-8.0093457 59.60241455 -8.01869141 58.2048291 -8.02832031 56.76489258 C-8.06822467 51.5743027 -8.13398551 46.38430524 -8.20751953 41.1940918 C-8.23572642 38.94872656 -8.25694232 36.70326209 -8.27099609 34.45776367 C-8.29242892 31.22783611 -8.33908271 27.99910144 -8.390625 24.76953125 C-8.39185364 23.76727005 -8.39308228 22.76500885 -8.39434814 21.7323761 C-8.48693698 17.31579899 -8.56084173 14.71405252 -10.91308594 10.8894043 C-14.64255461 7.51290008 -17.5924983 7.71580329 -22.4609375 7.79296875 C-26.01174459 8.0824961 -28.12892833 8.88087568 -31 11 C-35.06995404 16.72495028 -35.5999736 21.16914491 -35.609375 28.08984375 C-35.62591125 29.03436905 -35.64244751 29.97889435 -35.65948486 30.95204163 C-35.70778711 33.94726174 -35.72929638 36.94197479 -35.75 39.9375 C-35.77817453 41.97723881 -35.80810402 44.01695418 -35.83984375 46.05664062 C-35.91354141 51.03771865 -35.9632246 56.0185181 -36 61 C-40.95 61 -45.9 61 -51 61 C-51 39.88 -51 18.76 -51 -3 C-47.04 -3 -43.08 -3 -39 -3 C-38.34 -0.69 -37.68 1.62 -37 4 C-36.175 3.236875 -35.35 2.47375 -34.5 1.6875 C-24.89663143 -6.15562236 -10.47035761 -6.64164475 0 0 Z " fill="#DEE3F4" transform="translate(223,278)"/>
<path d="M0 0 C2.97 0 5.94 0 9 0 C9 4.62 9 9.24 9 14 C15.27 14 21.54 14 28 14 C28.09765625 21.71484375 28.09765625 21.71484375 28 24 C27 25 27 25 25.23413086 25.11352539 C24.48526611 25.10828857 23.73640137 25.10305176 22.96484375 25.09765625 C22.15595703 25.09443359 21.34707031 25.09121094 20.51367188 25.08789062 C19.66353516 25.07951172 18.81339844 25.07113281 17.9375 25.0625 C17.08349609 25.05798828 16.22949219 25.05347656 15.34960938 25.04882812 C13.23304337 25.03700373 11.11651315 25.01906769 9 25 C9.01943826 30.17858154 9.07120795 35.35546796 9.15258789 40.53344727 C9.17574364 42.29376991 9.19015794 44.05423061 9.19555664 45.81469727 C9.20486442 48.34999379 9.24589048 50.88312628 9.29296875 53.41796875 C9.2890361 54.20149216 9.28510345 54.98501556 9.28105164 55.7922821 C9.39207428 59.97696225 9.67707566 61.58446442 12.3359375 65.00585938 C15.7252074 67.54284219 17.62965708 67.52375469 21.8125 67.3125 C23.55466797 67.24482422 23.55466797 67.24482422 25.33203125 67.17578125 C26.21246094 67.11777344 27.09289062 67.05976563 28 67 C28 70.3 28 73.6 28 77 C21.19895109 80.40052445 11.58561018 80.39844849 4.24609375 78.16015625 C-0.70446955 75.37018035 -3.15230101 71.26208984 -5 66 C-5.49399007 62.65932005 -5.4699434 59.40224331 -5.390625 56.03125 C-5.38496521 55.11033569 -5.37930542 54.18942139 -5.37347412 53.24060059 C-5.35125236 50.32651693 -5.30108383 47.41370603 -5.25 44.5 C-5.2299166 42.51303871 -5.21166906 40.52605796 -5.1953125 38.5390625 C-5.1514343 33.69222501 -5.08250689 28.84632758 -5 24 C-7.97 24 -10.94 24 -14 24 C-14 22.02 -14 20.04 -14 18 C-13.11248047 17.68482422 -13.11248047 17.68482422 -12.20703125 17.36328125 C-7.90106853 15.47371523 -5.53961965 14.01763888 -3.2890625 9.7734375 C-2.0704108 6.54013617 -0.96641483 3.31689111 0 0 Z " fill="#E2E7F8" transform="translate(308,261)"/>
<path d="M0 0 C5.05574091 4.57424178 7.39386576 8.80575391 7.828125 15.51171875 C7.94281891 24.1997826 7.89656727 31.43234201 2.1875 38.3125 C-2.2539902 41.88735797 -5.48616259 42.84630996 -11.1328125 42.6796875 C-15.43499784 42.09506998 -18.01697438 40.0365378 -20.7175293 36.73242188 C-24.4711377 31.25460361 -25.1212685 26.93106523 -24.9375 20.375 C-24.94845703 19.52421875 -24.95941406 18.6734375 -24.97070312 17.796875 C-24.90327277 11.93492929 -23.79515283 7.2163188 -20.375 2.375 C-14.54923662 -2.83298823 -6.92615871 -3.33481715 0 0 Z " fill="#24293A" transform="translate(143.375,286.625)"/>
<path d="M0 0 C18.8006483 -0.58752026 18.8006483 -0.58752026 25 4 C27.9279076 7.11090183 28.21396135 9.80623915 28.375 13.9375 C28.20501153 18.33758608 27.73561961 21.40949927 25 25 C17.49024164 30.70741635 9.03585141 29.28237036 0 29 C0 19.43 0 9.86 0 0 Z " fill="#232B38" transform="translate(416,266)"/>
<path d="M0 0 C0.45372772 6.35218811 -0.29094689 10.72801256 -4 16 C-7.7457116 19.7457116 -10.93431004 20.31710195 -16.0625 20.5625 C-20.14833432 20.41023288 -21.72680914 20.17337112 -25.25 17.9375 C-27.48441796 14.18686986 -27.75467907 12.3016707 -27 8 C-24.55870979 3.82618125 -22.69225732 1.86071417 -18 0.625 C-12.05152912 -0.38150946 -6.01069412 -0.16722178 0 0 Z " fill="#222A38" transform="translate(501,309)"/>
<path d="M0 0 C0.74056641 0.00902344 1.48113281 0.01804687 2.24414062 0.02734375 C4.05873467 0.05075787 5.87316071 0.08662385 7.6875 0.125 C8.04011421 5.08118861 8.2512327 8.95417054 6.0625 13.5 C2.57744435 17.35190361 0.09753452 19.80840029 -5.2265625 20.5078125 C-13.40655912 20.80635252 -13.40655912 20.80635252 -16.64453125 18.37109375 C-18.98765887 15.21582822 -18.94158204 13.13328147 -18.765625 9.3125 C-18.02481982 5.73619911 -16.18686668 4.2328689 -13.3125 2.125 C-8.94339182 -0.14661965 -4.81195043 -0.11180582 0 0 Z " fill="#232839" transform="translate(269.3125,308.875)"/>
<path d="M0 0 C2.31 0 4.62 0 7 0 C7 4.29 7 8.58 7 13 C11.62 13 16.24 13 21 13 C21 15.31 21 17.62 21 20 C16.38 20 11.76 20 7 20 C7 24.62 7 29.24 7 34 C4.69 34 2.38 34 0 34 C0 29.38 0 24.76 0 20 C-4.62 20 -9.24 20 -14 20 C-14 17.69 -14 15.38 -14 13 C-9.38 13 -4.76 13 0 13 C0 8.71 0 4.42 0 0 Z " fill="#63D76C" transform="translate(251,419)"/>
<path d="M0 0 C3.75696274 2.38081684 4.98141325 5.18400326 6.25 9.4375 C6.25 11.0875 6.25 12.7375 6.25 14.4375 C-2.99 14.4375 -12.23 14.4375 -21.75 14.4375 C-21.75 8.21302785 -21.43124651 7.03905813 -17.75 2.4375 C-12.54491412 -2.13666638 -6.30116221 -3.12388127 0 0 Z " fill="#24293A" transform="translate(374.75,285.5625)"/>
<path d="M0 0 C2.375 1.0625 2.375 1.0625 4 3 C4.43060657 6.44485259 4.63335287 8.84506242 2.9375 11.9375 C-0.1652833 13.63902633 -2.53769185 13.42519574 -6 13 C-8.5 11.4375 -8.5 11.4375 -10 9 C-9.9375 5.375 -9.9375 5.375 -9 2 C-5.51131349 -0.32579101 -4.10281481 -0.41865457 0 0 Z " fill="#63D66B" transform="translate(362,444)"/>
<path d="M0 0 C2.8520847 1.97452017 3.81895125 3.09475625 4.5 6.5 C3.82597224 9.87013879 2.7912125 11.01677007 0 13 C-3.34262452 13.48746608 -5.29442492 13.31565201 -8.375 11.9375 C-10 10 -10 10 -10.4375 6.5 C-10 3 -10 3 -8.9375 1.0625 C-5.8347167 -0.63902633 -3.46230815 -0.42519574 0 0 Z " fill="#63D76C" transform="translate(377,430)"/>
<path d="M0 0 C2.54685809 0.0785782 3.81954973 0.17584047 6.0625 1.4375 C7.566606 4.25769875 7.51162849 6.16860056 7.0625 9.3125 C5.4375 11.6875 5.4375 11.6875 3.0625 13.3125 C0.0625 13.875 0.0625 13.875 -2.9375 13.3125 C-5.375 11.1875 -5.375 11.1875 -6.9375 8.3125 C-6.71631481 2.67227755 -5.90101777 0.46833474 0 0 Z " fill="#63D76C" transform="translate(358.9375,415.6875)"/>
<path d="M0 0 C1.9375 1.0625 1.9375 1.0625 3 3 C3.4375 6.5 3.4375 6.5 3 10 C0.76679398 12.66266871 -0.6200117 12.95347082 -4.0625 13.375 C-7 13 -7 13 -8.875 11.9375 C-10.64273274 8.8930714 -10.36823916 6.4368988 -10 3 C-7.77766882 -1.05248626 -4.20052866 -0.45005664 0 0 Z " fill="#64DB6D" transform="translate(348,430)"/>
</svg>
