<?xml version="1.0" encoding="UTF-8"?>
<svg version="1.1" xmlns="http://www.w3.org/2000/svg" width="1024" height="1024">
<path d="M0 0 C337.92 0 675.84 0 1024 0 C1024 337.92 1024 675.84 1024 1024 C686.08 1024 348.16 1024 0 1024 C0 686.08 0 348.16 0 0 Z " fill="#EFEFEF" transform="translate(0,0)"/>
<path d="M0 0 C216.48 0 432.96 0 656 0 C656 216.48 656 432.96 656 656 C593.96 656 531.92 656 468 656 C468 611.78 468 567.56 468 522 C485.82 522 503.64 522 522 522 C522 393.96 522 265.92 522 134 C393.96 134 265.92 134 134 134 C134 192.08 134 250.16 134 310 C89.78 310 45.56 310 0 310 C0 207.7 0 105.4 0 0 Z " fill="#118800" transform="translate(185,183)"/>
<path d="M0 0 C15.43566622 13.31796811 27.27397208 33.20198362 29.1875 53.7734375 C30.6882675 81.53981129 27.6072287 107.67179485 8.5625 129.1484375 C-7.37960762 146.35670529 -25.63456525 159.51631866 -44.80249023 172.86328125 C-75.33518288 193.30833726 -75.33518288 193.30833726 -97.8125 221.7734375 C-55.2425 221.7734375 -12.6725 221.7734375 31.1875 221.7734375 C31.1875 238.6034375 31.1875 255.4334375 31.1875 272.7734375 C-35.1425 272.7734375 -101.4725 272.7734375 -169.8125 272.7734375 C-169.8125 237.71420748 -158.9375794 208.45164388 -134.3125 183.2109375 C-133.4875 182.4065625 -132.6625 181.6021875 -131.8125 180.7734375 C-131.21566406 180.14308594 -130.61882812 179.51273438 -130.00390625 178.86328125 C-115.72866477 164.01179149 -97.77890993 152.34437599 -81 140.5234375 C-79.95066284 139.78383789 -79.95066284 139.78383789 -78.88012695 139.02929688 C-75.65268893 136.75868415 -72.41812489 134.49969101 -69.16796875 132.26171875 C-50.43971663 119.27797778 -33.31046215 104.97097956 -27.8125 81.7734375 C-27.51929654 78.66394679 -27.47821445 75.58280706 -27.5 72.4609375 C-27.50845947 71.19745483 -27.50845947 71.19745483 -27.51708984 69.90844727 C-27.73345878 58.82757285 -30.92795311 49.34945393 -38.44140625 40.953125 C-48.03811949 32.09119491 -59.30659867 31.21835109 -71.73828125 31.44140625 C-80.54678782 31.83625353 -87.08858868 34.85221431 -93.625 40.7109375 C-107.0497275 55.5462342 -108.44848015 74.67715959 -109.8125 93.7734375 C-127.6325 93.7734375 -145.4525 93.7734375 -163.8125 93.7734375 C-163.8125 71.66234892 -163.8125 71.66234892 -162.625 65.1484375 C-162.4911792 64.37395264 -162.3573584 63.59946777 -162.21948242 62.80151367 C-157.43288321 36.59654964 -145.66928814 12.11076288 -123.6875 -3.8515625 C-86.89600611 -28.94824952 -34.90848599 -27.63588474 0 0 Z " fill="#0D0D0D" transform="translate(349.8125,566.2265625)"/>
<path d="M0 0 C16.83 0 33.66 0 51 0 C51 58.08 51 116.16 51 176 C63.21 176 75.42 176 88 176 C88 192.17 88 208.34 88 225 C75.79 225 63.58 225 51 225 C51 247.11 51 269.22 51 292 C34.17 292 17.34 292 0 292 C0 269.89 0 247.78 0 225 C-38.94 225 -77.88 225 -118 225 C-118 169.29932356 -118 169.29932356 -92.59765625 133.12890625 C-88.7137773 127.59842557 -84.85623335 122.04977752 -81 116.5 C-76.01263405 109.32442799 -71.01498951 102.15629338 -66 95 C-55.92011596 80.61295451 -45.86920848 66.2058622 -35.94067383 51.71386719 C-32.17363146 46.2270727 -28.33311425 40.79367556 -24.48608398 35.36279297 C-20.22324951 29.33662288 -16.03238355 23.26313894 -11.86328125 17.171875 C-7.92644559 11.43580339 -3.96004879 5.72007047 0 0 Z " fill="#0D0D0D" transform="translate(508,547)"/>
<path d="M0 0 C0.33 0 0.66 0 1 0 C1 35.64 1 71.28 1 108 C-23.09 108 -47.18 108 -72 108 C-66.37930482 97.88274868 -66.37930482 97.88274868 -63.375 93.5078125 C-62.68269287 92.49420654 -61.99038574 91.48060059 -61.27709961 90.4362793 C-60.90825653 89.89997894 -60.53941345 89.36367859 -60.15939331 88.81112671 C-58.07841366 85.78472028 -56.01127142 82.74885721 -53.94140625 79.71484375 C-53.25661949 78.71228294 -53.25661949 78.71228294 -52.55799866 77.68946838 C-46.62213072 68.99365923 -40.73981373 60.26165715 -34.85473633 51.53143311 C-32.97997248 48.75050156 -31.10431469 45.97017475 -29.22851562 43.18994141 C-20.26168894 29.89532887 -11.354162 16.56261871 -2.49609375 3.1953125 C-1 1 -1 1 0 0 Z " fill="#EDEDED" transform="translate(507,615)"/>
<path d="M0 0 C323.73 0.495 323.73 0.495 654 1 C654 1.99 654 2.98 654 4 C438.18 4 222.36 4 0 4 C0 2.68 0 1.36 0 0 Z " fill="#0F6100" transform="translate(186,183)"/>
<path d="M0 0 C3.08012783 -0.14378959 6.12323704 -0.12270129 9.20596313 -0.05038452 C10.89759331 -0.03977242 10.89759331 -0.03977242 12.62339783 -0.02894592 C16.23101697 -0.00092179 19.8370931 0.06183565 23.44424438 0.12539673 C25.88758137 0.15046904 28.33094265 0.17328406 30.77432251 0.1937561 C36.76899101 0.24893124 42.76275749 0.33263857 48.75674438 0.43789673 C48.75674438 1.75789673 48.75674438 3.07789673 48.75674438 4.43789673 C47.83712418 4.44336517 47.83712418 4.44336517 46.89892578 4.44894409 C40.50691073 4.49081626 34.11561055 4.56019518 27.72402954 4.64541626 C25.33998776 4.67360868 22.9558528 4.69483176 20.57168579 4.70889282 C17.14069986 4.73034542 13.71083214 4.77701037 10.28018188 4.82852173 C8.68610001 4.83036469 8.68610001 4.83036469 7.05981445 4.83224487 C1.00039087 4.95165861 -2.59433041 5.43717249 -7.24325562 9.43789673 C-6.59656147 8.09476274 -5.92421983 6.76398494 -5.24325562 5.43789673 C-4.95990356 4.57527222 -4.67655151 3.71264771 -4.38461304 2.82388306 C-2.24325562 0.43789673 -2.24325562 0.43789673 0 0 Z " fill="#070707" transform="translate(510.2432556152344,546.5621032714844)"/>
<path d="M0 0 C17.49 0 34.98 0 53 0 C53 1.32 53 2.64 53 4 C35.51 4 18.02 4 0 4 C0 2.68 0 1.36 0 0 Z " fill="#0F6101" transform="translate(654,705)"/>
<path d="M0 0 C1.92875977 0.00483398 1.92875977 0.00483398 3.89648438 0.00976562 C5.2343757 0.01811823 6.57226632 0.02658314 7.91015625 0.03515625 C9.27538899 0.04017966 10.64062351 0.04474108 12.00585938 0.04882812 C15.32817082 0.06056774 18.65039033 0.07698946 21.97265625 0.09765625 C21.97265625 1.41765625 21.97265625 2.73765625 21.97265625 4.09765625 C10.09265625 4.09765625 -1.78734375 4.09765625 -14.02734375 4.09765625 C-14.02734375 3.10765625 -14.02734375 2.11765625 -14.02734375 1.09765625 C-9.30116963 0.33502961 -4.78529662 -0.02126798 0 0 Z " fill="#050505" transform="translate(573.02734375,722.90234375)"/>
</svg>
